<?xml version="1.0" encoding="UTF-8"?>
<svg width="48px" height="48px" viewBox="0 0 48 48" version="1.1" xmlns="http://www.w3.org/2000/svg" xmlns:xlink="http://www.w3.org/1999/xlink">
    <!-- Generator: Sketch 50.2 (55047) - http://www.bohemiancoding.com/sketch -->
    <title>Airbnb</title>
    <desc>Created with Sketch.</desc>
    <defs></defs>
    <g id="Airbnb" stroke="none" stroke-width="1" fill="none" fill-rule="evenodd">
        <g fill-rule="nonzero">
            <path d="M0,24 C0,10.7451654 10.7451654,0 24,0 C37.2548346,0 48,10.7451654 48,24 C48,37.2548346 37.2548346,48 24,48 C10.7451654,48 0,37.2548346 0,24 Z" id="back" fill="#FFFFFF"></path>
            <path d="M35.9991782,30.6194691 C35.9909525,29.8668261 35.8277724,29.0983562 35.5315238,28.3311283 C35.3849281,27.9501751 35.2554137,27.6503261 34.9621534,26.9960164 C34.953585,26.9768993 34.953585,26.9768993 34.945024,26.9577973 C34.9042482,26.8667971 34.9042482,26.8667971 34.8637152,26.7761074 C33.0642079,22.7814883 31.1715289,18.8213089 29.1862846,14.8955602 C29.1360572,14.7969018 29.0960419,14.7179603 29.0075627,14.5431515 C29.0057513,14.5395726 29.0057513,14.5395726 29.0039397,14.5359934 C28.6791595,13.8943241 28.529501,13.6043431 28.3347416,13.2477109 C27.9780222,12.5993541 27.6144948,12.0926523 27.17535,11.678103 C26.4026646,10.9278509 25.3568635,10.4699336 24.2703624,10.4010418 L23.7975469,10.4 C22.6562744,10.4567273 21.575744,10.9329382 20.7810195,11.7218611 C20.3648106,12.1233322 20.0157511,12.6151451 19.667408,13.2474594 C19.4718726,13.6042811 19.3110511,13.9154381 19.0044284,14.5219675 C18.9863203,14.5577893 18.9863203,14.5577893 18.9682299,14.5935792 C18.898181,14.732151 18.8677061,14.7923732 18.828233,14.870147 C17.507159,17.4808714 16.2177978,20.1278234 14.9593238,22.8113744 C14.0389452,24.7823701 13.3887622,26.2017297 12.7633998,27.6196893 C12.3773479,28.4990085 12.158748,29.1567094 12.0631229,29.8551195 C11.8606744,31.2024702 12.1498478,32.6238824 12.8636848,33.7924327 C13.478393,34.8065371 14.4003942,35.6202827 15.473475,36.0912198 C16.3095857,36.4593521 17.2311805,36.6257754 18.1385146,36.5712347 C19.2850289,36.5092759 20.4363716,36.1066897 21.5031506,35.4333977 C22.4793065,34.8232982 23.3569196,34.0330625 24.3863842,32.9080869 L23.6171,32.9072419 C24.5603146,33.9425047 25.378975,34.6933384 26.2773318,35.2903106 C27.3322971,35.997162 28.4637238,36.4405942 29.6051304,36.5504106 C30.9321132,36.6915898 32.3023218,36.3534154 33.411144,35.6044449 C34.3872894,34.9497034 35.15821,33.9845215 35.5914444,32.8761887 C35.8727187,32.1590509 36.0124392,31.3859341 35.999131,30.6161286 L35.9991782,30.6194691 Z M33.2980766,31.7061585 C33.0688946,32.5117158 32.5157947,33.2177766 31.7978505,33.6222461 C31.1651382,33.9826474 30.4009554,34.1126666 29.6714961,33.988555 C28.8026856,33.8508125 27.9483753,33.4018558 27.0594799,32.6725386 C26.5371998,32.245123 26.0366562,31.7460367 25.4322144,31.0705785 L25.4556006,31.742304 C26.4511138,30.4600202 27.1687994,29.3733502 27.7234432,28.2379226 C28.3447806,26.9615923 28.6952117,25.769778 28.732181,24.5862528 C28.7568867,23.6973747 28.5823294,22.840926 28.2034707,22.1055611 C27.6919545,21.0923706 26.7729362,20.2947951 25.6907983,19.9069521 C24.7111475,19.5505533 23.6190447,19.5164145 22.6116601,19.8088726 C21.6430342,20.0879866 20.7772211,20.6799995 20.185469,21.4822119 C19.6701432,22.1742075 19.360905,23.0342169 19.2900422,23.9316795 C19.1955267,25.052775 19.4279747,26.2192109 19.9280004,27.4540331 C20.519746,28.8902707 21.3806568,30.262838 22.5510578,31.7341809 L22.5611802,31.0684467 C22.1335886,31.5735684 21.6576366,32.0542027 21.1376938,32.5087617 C20.2514297,33.2725392 19.4112154,33.7578142 18.5477042,33.9480259 C17.7884302,34.1215602 16.9888012,34.0290754 16.3236562,33.6863849 C15.531093,33.2841307 14.9201417,32.5233666 14.6908684,31.6535662 C14.518413,31.0248591 14.5476371,30.3279966 14.7652869,29.6744801 C14.8933374,29.2920105 15.0224762,28.9836175 15.3266556,28.3051102 C15.3394318,28.2766122 15.3394318,28.2766122 15.3522278,28.2480638 C15.407747,28.124184 15.4436019,28.0438154 15.4803647,27.9605815 C17.2417754,24.0491857 19.1067435,20.145577 21.0717924,16.2537237 C21.1135442,16.171254 21.1468695,16.1052576 21.2218539,15.9566314 C21.2256382,15.9491306 21.2256382,15.9491306 21.2294219,15.9416308 C21.5804126,15.2459286 21.7433599,14.9292836 21.9509013,14.5483109 C22.2292106,14.0441258 22.4743851,13.7165038 22.7700622,13.4876854 C23.1244911,13.2053643 23.5692462,13.0540848 24.0075278,13.064207 C24.476245,13.0588922 24.9344662,13.228948 25.2889556,13.5322746 C25.605378,13.7998836 25.8474462,14.1528494 26.1709635,14.767856 C26.6360841,15.657589 27.0408569,16.4603999 27.7823271,17.9519594 C27.8485476,18.0851808 27.8485476,18.0851808 27.9147769,18.2184347 C27.9220905,18.2331494 27.9220905,18.2331494 27.9294043,18.2478644 C29.5909601,21.5981742 31.1790302,24.9617095 32.6924091,28.33786 C32.7129622,28.3850447 32.728937,28.4214141 32.7675192,28.5089902 C32.7817046,28.5411591 32.7817046,28.5411591 32.7958517,28.5732273 C33.0803404,29.218124 33.1969996,29.5110428 33.2980719,29.874188 C33.4644358,30.4775741 33.4656661,31.1214451 33.298359,31.7051693 L33.2980766,31.7061585 Z M24.4072423,29.8126444 C24.1888947,29.550865 24.0123209,29.3071082 23.6711144,28.8105222 C23.6486678,28.777849 23.6486678,28.777849 23.6261632,28.7450877 C23.6130438,28.7259915 23.6130438,28.7259915 23.5999012,28.7068686 C23.1327051,28.0089307 22.7539121,27.3402698 22.4576814,26.6720539 C22.1756455,26.0278325 21.998197,25.4460632 21.927375,24.8832144 C21.8670918,24.3620613 21.9004414,23.9135867 22.0425817,23.5392053 C22.1773532,23.1673562 22.4335622,22.8462642 22.7598498,22.6345302 C23.5757205,22.0983117 24.7393962,22.1673121 25.4575418,22.7991672 C25.8007464,23.096938 26.0261437,23.5536439 26.0830327,24.0525699 C26.1546511,24.6904774 26.0351677,25.3859276 25.7478663,26.1674482 C25.3065573,27.3472117 24.62155,28.4793485 23.5926254,29.8308435 L24.0071867,30.1487624 L24.4072423,29.8126444 Z" id="Shape" fill="#FF7977"></path>
        </g>
    </g>
</svg>